<?xml version="1.0" encoding="UTF-8"?>
<svg xmlns="http://www.w3.org/2000/svg" viewBox="155 294 890 148">
  <defs>
    <style>.cls-1{fill:#6f1586;}</style>
  </defs>
  <g>
    <g>
      <path class="cls-1" d="M821.92,393.11c11.2-5.81,17.33-16.12,17.33-29.33,0-10.61-3.93-19.49-11.37-25.69-7.3-6.08-17.69-9.3-30.04-9.3h-41.28v94.64h25.52v-25.05h15.55l16.64,24.04.7,1.01h28.1l-2.58-3.7-18.57-26.62ZM796.68,377.1h-14.6v-26.64h14.6c11.14,0,16.79,4.48,16.79,13.32,0,11.01-9.13,13.32-16.79,13.32Z"/>
      <polygon class="cls-1" points="876.37 402.02 876.37 385.92 915.77 385.92 918.12 385.92 918.12 383.57 918.12 367.38 918.12 365.02 915.77 365.02 876.37 365.02 876.37 350.21 921.29 350.21 923.65 350.21 923.65 347.85 923.65 331.15 923.65 328.8 921.29 328.8 853.33 328.8 850.98 328.8 850.98 331.15 850.98 421.08 850.98 423.44 853.33 423.44 922.96 423.44 925.32 423.44 925.32 421.08 925.32 404.38 925.32 402.02 922.96 402.02 876.37 402.02"/>
      <path class="cls-1" d="M1022.01,328.8h-22.91v50.36l-40.53-49.5-.71-.86h-20.69v94.64h25.27v-50.37l40.66,49.51.71.86h20.56v-94.64h-2.36Z"/>
      <path class="cls-1" d="M246.96,338.09c-7.3-6.08-17.69-9.3-30.04-9.3h-41.28v94.64h25.52v-24.79h15.76c12.35,0,22.74-3.21,30.04-9.28,7.44-6.18,11.37-15.03,11.37-25.58s-3.93-19.49-11.37-25.69ZM215.76,376.97h-14.6v-26.51h14.6c11.14,0,16.79,4.48,16.79,13.32s-5.65,13.19-16.79,13.19Z"/>
      <path class="cls-1" d="M428.18,393.11c11.2-5.81,17.33-16.12,17.33-29.33,0-10.61-3.93-19.49-11.37-25.69-7.3-6.08-17.68-9.3-30.04-9.3h-41.28v94.64h25.52v-25.05h15.55l16.64,24.04.7,1.01h28.1l-2.58-3.7-18.57-26.62ZM402.94,377.1h-14.6v-26.64h14.6c11.14,0,16.79,4.48,16.79,13.32,0,11.01-9.13,13.32-16.79,13.32Z"/>
      <path class="cls-1" d="M528.56,338.09c-7.3-6.08-17.69-9.3-30.05-9.3h-41.28v94.64h25.52v-24.79h15.76c12.35,0,22.74-3.21,30.04-9.28,7.44-6.18,11.37-15.03,11.37-25.58s-3.93-19.49-11.37-25.69ZM497.36,376.97h-14.6v-26.51h14.6c11.14,0,16.79,4.48,16.79,13.32s-5.65,13.19-16.79,13.19Z"/>
      <polygon class="cls-1" points="574.23 401.77 574.23 331.15 574.23 328.8 571.88 328.8 551.06 328.8 548.71 328.8 548.71 331.15 548.71 421.08 548.71 423.44 551.06 423.44 616.97 423.44 619.32 423.44 619.32 421.08 619.32 404.12 619.32 401.77 616.97 401.77 574.23 401.77"/>
      <polygon class="cls-1" points="654.26 402.02 654.26 385.92 693.66 385.92 696.01 385.92 696.01 383.57 696.01 367.38 696.01 365.02 693.66 365.02 654.26 365.02 654.26 350.21 699.18 350.21 701.54 350.21 701.54 347.85 701.54 331.15 701.54 328.8 699.18 328.8 631.22 328.8 628.87 328.8 628.87 331.15 628.87 421.08 628.87 423.44 631.22 423.44 700.85 423.44 703.21 423.44 703.21 421.08 703.21 404.38 703.21 402.02 700.85 402.02 654.26 402.02"/>
    </g>
    <g>
      <path class="cls-1" d="M210.67,485.72v8.4h-35.03v-45.25h34.19v8.4h-23.79v9.83h21.01v8.14h-21.01v10.47h24.63Z"/>
      <path class="cls-1" d="M225.53,488.31l5.82-6.98c2.46,3.3,5.17,4.98,8.4,4.98,4.2,0,6.4-2.52,6.4-7.5v-21.53h-15.9v-8.4h26.31v29.35c0,11.18-5.62,16.68-16.29,16.68-6.08,0-11.44-2.33-14.74-6.59Z"/>
      <path class="cls-1" d="M314.85,485.72v8.4h-35.03v-45.25h34.19v8.4h-23.79v9.83h21.01v8.14h-21.01v10.47h24.63Z"/>
      <path class="cls-1" d="M377.61,448.88v45.25h-8.6l-22.56-27.47v27.47h-10.34v-45.25h8.66l22.49,27.47v-27.47h10.34Z"/>
      <path class="cls-1" d="M401.26,448.88h20.55c14.8,0,24.95,8.92,24.95,22.62s-10.15,22.62-24.95,22.62h-20.55v-45.25ZM421.3,485.53c8.98,0,14.87-5.37,14.87-14.03s-5.88-14.03-14.87-14.03h-9.57v28.05h9.57Z"/>
      <path class="cls-1" d="M464.73,471.5c0-13.45,10.47-23.4,24.76-23.4s24.76,9.89,24.76,23.4-10.54,23.4-24.76,23.4-24.76-9.95-24.76-23.4ZM503.64,471.5c0-8.6-6.08-14.48-14.16-14.48s-14.16,5.88-14.16,14.48,6.08,14.48,14.16,14.48,14.16-5.88,14.16-14.48Z"/>
      <path class="cls-1" d="M576.22,494.13l-.06-27.15-13.32,22.37h-4.72l-13.25-21.78v26.57h-9.82v-45.25h8.66l16.94,28.12,16.68-28.12h8.6l.13,45.25h-9.83Z"/>
      <path class="cls-1" d="M606.14,489.67l3.56-7.89c3.81,2.78,9.5,4.72,14.93,4.72,6.21,0,8.73-2.07,8.73-4.85,0-8.47-26.31-2.65-26.31-19.46,0-7.69,6.21-14.09,19.07-14.09,5.69,0,11.51,1.36,15.71,4.01l-3.23,7.95c-4.2-2.39-8.53-3.55-12.54-3.55-6.21,0-8.6,2.33-8.6,5.17,0,8.34,26.31,2.59,26.31,19.2,0,7.56-6.27,14.03-19.2,14.03-7.17,0-14.41-2.13-18.42-5.24Z"/>
      <path class="cls-1" d="M660.3,489.67l3.56-7.89c3.81,2.78,9.5,4.72,14.93,4.72,6.21,0,8.73-2.07,8.73-4.85,0-8.47-26.31-2.65-26.31-19.46,0-7.69,6.21-14.09,19.07-14.09,5.69,0,11.51,1.36,15.71,4.01l-3.23,7.95c-4.2-2.39-8.53-3.55-12.54-3.55-6.2,0-8.6,2.33-8.6,5.17,0,8.34,26.31,2.59,26.31,19.2,0,7.56-6.27,14.03-19.2,14.03-7.17,0-14.41-2.13-18.42-5.24Z"/>
      <path class="cls-1" d="M753.05,485.72v8.4h-35.03v-45.25h34.19v8.4h-23.79v9.83h21.01v8.14h-21.01v10.47h24.63Z"/>
      <path class="cls-1" d="M803.14,494.13l-8.73-12.6h-9.63v12.6h-10.47v-45.25h19.59c12.09,0,19.65,6.27,19.65,16.42,0,6.79-3.43,11.76-9.31,14.29l10.15,14.54h-11.25ZM793.31,457.41h-8.53v15.77h8.53c6.4,0,9.63-2.97,9.63-7.89s-3.23-7.89-9.63-7.89Z"/>
      <path class="cls-1" d="M878.24,448.88l-19.59,45.25h-10.34l-19.52-45.25h11.31l13.77,32.32,13.96-32.32h10.41Z"/>
      <path class="cls-1" d="M894.91,448.88h10.47v45.25h-10.47v-45.25Z"/>
      <path class="cls-1" d="M926.19,471.5c0-13.64,10.47-23.4,24.56-23.4,7.82,0,14.35,2.84,18.62,8.01l-6.72,6.21c-3.04-3.49-6.85-5.3-11.38-5.3-8.47,0-14.48,5.95-14.48,14.48s6.01,14.48,14.48,14.48c4.53,0,8.34-1.81,11.38-5.37l6.72,6.21c-4.27,5.24-10.79,8.08-18.68,8.08-14.03,0-24.5-9.76-24.5-23.4Z"/>
      <path class="cls-1" d="M1024.37,485.72v8.4h-35.03v-45.25h34.19v8.4h-23.79v9.83h21.01v8.14h-21.01v10.47h24.63Z"/>
    </g>
  </g>
  <g>
    <path class="cls-1" d="M325.47,328.86c.2.32.41.63.61.96,1.98,3.19,4.65,7.43,8.02,12.71,5.7,8.93,9.45,18.76,9.36,30.12-.17,20.15-14.97,36.37-32.68,36.37s-32.51-16.22-32.68-36.37c-.1-11.37,3.66-21.19,9.36-30.12,3.37-5.28,6.05-9.52,8.02-12.71.2-.33.41-.64.61-.96h-31.4v54.52c0,22.12,17.93,40.06,40.06,40.06h12.05c22.12,0,40.06-17.93,40.06-40.06v-54.52h-31.39Z"/>
    <path class="cls-1" d="M310.78,310.69c2.1,4.7,4.87,8.38,7.76,12.21,1.88,2.49,3.82,5.07,5.68,8.06,1.97,3.18,4.68,7.47,8.04,12.73,6.15,9.63,9.1,19.09,9.02,28.92-.16,18.86-13.83,34.2-30.49,34.2s-30.33-15.34-30.49-34.2c-.08-9.83,2.87-19.29,9.02-28.92,3.36-5.27,6.07-9.55,8.04-12.73,1.86-3,3.8-5.57,5.68-8.07,2.89-3.83,5.66-7.5,7.76-12.21M310.78,304.38s-.06.01-.08.04c0,0,0,.01,0,.02-2.95,10.86-9.4,16.01-15.21,25.38-1.98,3.19-4.65,7.43-8.02,12.71-5.7,8.93-9.46,18.75-9.36,30.12.17,20.15,14.97,36.37,32.68,36.37s32.52-16.22,32.68-36.37c.1-11.36-3.66-21.19-9.36-30.12-3.37-5.28-6.05-9.52-8.02-12.71-5.8-9.37-12.25-14.52-15.2-25.38,0,0,0-.01-.01-.02-.02-.03-.05-.04-.08-.04h0Z"/>
    <path class="cls-1" d="M292.18,354.8c-3.56,11.7-3.21,23.52,4.55,33.34,2.34,3.19,5.18,6.18,8.15,9.35-8.53-2.54-16.04-9.11-18.78-17.77-2.77-8.63-.41-18.63,6.08-24.91h0Z"/>
  </g>
</svg>
