<?xml version="1.0" encoding="UTF-8"?>
<svg id="Layer_8" data-name="Layer 8" xmlns="http://www.w3.org/2000/svg" viewBox="0 0 1200 800">
  <defs>
    <style>
      .cls-1 {
        fill: #1e2122;
      }

      .cls-2 {
        fill: #fff;
      }
    </style>
  </defs>
  <rect class="cls-1" y="-.36" width="1200" height="800"/>
  <g>
    <g>
      <g>
        <g>
          <path class="cls-2" d="M821.92,382.05c11.2-5.81,17.33-16.12,17.33-29.33,0-10.61-3.93-19.49-11.37-25.69-7.3-6.08-17.69-9.3-30.04-9.3h-41.28v94.64h25.52v-25.05h15.55l16.64,24.04.7,1.01h28.1l-2.58-3.7-18.57-26.62ZM796.68,366.04h-14.6v-26.64h14.6c11.14,0,16.79,4.48,16.79,13.32,0,11.01-9.13,13.32-16.79,13.32Z"/>
          <polygon class="cls-2" points="876.37 390.97 876.37 374.87 915.77 374.87 918.12 374.87 918.12 372.51 918.12 356.32 918.12 353.97 915.77 353.97 876.37 353.97 876.37 339.15 921.29 339.15 923.65 339.15 923.65 336.8 923.65 320.09 923.65 317.74 921.29 317.74 853.33 317.74 850.98 317.74 850.98 320.09 850.98 410.02 850.98 412.38 853.33 412.38 922.96 412.38 925.32 412.38 925.32 410.02 925.32 393.32 925.32 390.97 922.96 390.97 876.37 390.97"/>
          <path class="cls-2" d="M1022.01,317.74h-22.91v50.36l-40.53-49.5-.71-.86h-20.69v94.64h25.27v-50.37l40.66,49.51.71.86h20.56v-94.64h-2.36Z"/>
          <path class="cls-2" d="M246.96,327.04c-7.3-6.08-17.69-9.3-30.04-9.3h-41.28v94.64h25.52v-24.79h15.76c12.35,0,22.74-3.21,30.04-9.28,7.44-6.18,11.37-15.03,11.37-25.58s-3.93-19.49-11.37-25.69ZM215.76,365.91h-14.6v-26.51h14.6c11.14,0,16.79,4.48,16.79,13.32s-5.65,13.19-16.79,13.19Z"/>
          <path class="cls-2" d="M428.18,382.05c11.2-5.81,17.33-16.12,17.33-29.33,0-10.61-3.93-19.49-11.37-25.69-7.3-6.08-17.68-9.3-30.04-9.3h-41.28v94.64h25.52v-25.05h15.55l16.64,24.04.7,1.01h28.1l-2.58-3.7-18.57-26.62ZM402.94,366.04h-14.6v-26.64h14.6c11.14,0,16.79,4.48,16.79,13.32,0,11.01-9.13,13.32-16.79,13.32Z"/>
          <path class="cls-2" d="M528.56,327.04c-7.3-6.08-17.69-9.3-30.05-9.3h-41.28v94.64h25.52v-24.79h15.76c12.35,0,22.74-3.21,30.04-9.28,7.44-6.18,11.37-15.03,11.37-25.58s-3.93-19.49-11.37-25.69ZM497.36,365.91h-14.6v-26.51h14.6c11.14,0,16.79,4.48,16.79,13.32s-5.65,13.19-16.79,13.19Z"/>
          <polygon class="cls-2" points="574.23 390.71 574.23 320.09 574.23 317.74 571.88 317.74 551.06 317.74 548.71 317.74 548.71 320.09 548.71 410.02 548.71 412.38 551.06 412.38 616.97 412.38 619.32 412.38 619.32 410.02 619.32 393.06 619.32 390.71 616.97 390.71 574.23 390.71"/>
          <polygon class="cls-2" points="654.26 390.97 654.26 374.87 693.66 374.87 696.01 374.87 696.01 372.51 696.01 356.32 696.01 353.97 693.66 353.97 654.26 353.97 654.26 339.15 699.18 339.15 701.54 339.15 701.54 336.8 701.54 320.09 701.54 317.74 699.18 317.74 631.22 317.74 628.87 317.74 628.87 320.09 628.87 410.02 628.87 412.38 631.22 412.38 700.85 412.38 703.21 412.38 703.21 410.02 703.21 393.32 703.21 390.97 700.85 390.97 654.26 390.97"/>
        </g>
        <g>
          <path class="cls-2" d="M210.67,496.78v8.4h-35.03v-45.25h34.19v8.4h-23.79v9.83h21.01v8.14h-21.01v10.47h24.63Z"/>
          <path class="cls-2" d="M225.53,499.37l5.82-6.98c2.46,3.3,5.17,4.98,8.4,4.98,4.2,0,6.4-2.52,6.4-7.5v-21.53h-15.9v-8.4h26.31v29.35c0,11.18-5.62,16.68-16.29,16.68-6.08,0-11.44-2.33-14.74-6.59Z"/>
          <path class="cls-2" d="M314.85,496.78v8.4h-35.03v-45.25h34.19v8.4h-23.79v9.83h21.01v8.14h-21.01v10.47h24.63Z"/>
          <path class="cls-2" d="M377.61,459.94v45.25h-8.6l-22.56-27.47v27.47h-10.34v-45.25h8.66l22.49,27.47v-27.47h10.34Z"/>
          <path class="cls-2" d="M401.26,459.94h20.55c14.8,0,24.95,8.92,24.95,22.62s-10.15,22.62-24.95,22.62h-20.55v-45.25ZM421.3,496.59c8.98,0,14.87-5.37,14.87-14.03s-5.88-14.03-14.87-14.03h-9.57v28.05h9.57Z"/>
          <path class="cls-2" d="M464.73,482.56c0-13.45,10.47-23.4,24.76-23.4s24.76,9.89,24.76,23.4-10.54,23.4-24.76,23.4-24.76-9.95-24.76-23.4ZM503.64,482.56c0-8.6-6.08-14.48-14.16-14.48s-14.16,5.88-14.16,14.48,6.08,14.48,14.16,14.48,14.16-5.88,14.16-14.48Z"/>
          <path class="cls-2" d="M576.22,505.19l-.06-27.15-13.32,22.37h-4.72l-13.25-21.78v26.57h-9.82v-45.25h8.66l16.94,28.12,16.68-28.12h8.6l.13,45.25h-9.83Z"/>
          <path class="cls-2" d="M606.14,500.73l3.56-7.89c3.81,2.78,9.5,4.72,14.93,4.72,6.21,0,8.73-2.07,8.73-4.85,0-8.47-26.31-2.65-26.31-19.46,0-7.69,6.21-14.09,19.07-14.09,5.69,0,11.51,1.36,15.71,4.01l-3.23,7.95c-4.2-2.39-8.53-3.55-12.54-3.55-6.21,0-8.6,2.33-8.6,5.17,0,8.34,26.31,2.59,26.31,19.2,0,7.56-6.27,14.03-19.2,14.03-7.17,0-14.41-2.13-18.42-5.24Z"/>
          <path class="cls-2" d="M660.3,500.73l3.56-7.89c3.81,2.78,9.5,4.72,14.93,4.72,6.21,0,8.73-2.07,8.73-4.85,0-8.47-26.31-2.65-26.31-19.46,0-7.69,6.21-14.09,19.07-14.09,5.69,0,11.51,1.36,15.71,4.01l-3.23,7.95c-4.2-2.39-8.53-3.55-12.54-3.55-6.2,0-8.6,2.33-8.6,5.17,0,8.34,26.31,2.59,26.31,19.2,0,7.56-6.27,14.03-19.2,14.03-7.17,0-14.41-2.13-18.42-5.24Z"/>
          <path class="cls-2" d="M753.05,496.78v8.4h-35.03v-45.25h34.19v8.4h-23.79v9.83h21.01v8.14h-21.01v10.47h24.63Z"/>
          <path class="cls-2" d="M803.14,505.19l-8.73-12.6h-9.63v12.6h-10.47v-45.25h19.59c12.09,0,19.65,6.27,19.65,16.42,0,6.79-3.43,11.76-9.31,14.29l10.15,14.54h-11.25ZM793.31,468.47h-8.53v15.77h8.53c6.4,0,9.63-2.97,9.63-7.89s-3.23-7.89-9.63-7.89Z"/>
          <path class="cls-2" d="M878.24,459.94l-19.59,45.25h-10.34l-19.52-45.25h11.31l13.77,32.32,13.96-32.32h10.41Z"/>
          <path class="cls-2" d="M894.91,459.94h10.47v45.25h-10.47v-45.25Z"/>
          <path class="cls-2" d="M926.19,482.56c0-13.64,10.47-23.4,24.56-23.4,7.82,0,14.35,2.84,18.62,8.01l-6.72,6.21c-3.04-3.49-6.85-5.3-11.38-5.3-8.47,0-14.48,5.95-14.48,14.48s6.01,14.48,14.48,14.48c4.53,0,8.34-1.81,11.38-5.37l6.72,6.21c-4.27,5.24-10.79,8.08-18.68,8.08-14.03,0-24.5-9.76-24.5-23.4Z"/>
          <path class="cls-2" d="M1024.37,496.78v8.4h-35.03v-45.25h34.19v8.4h-23.79v9.83h21.01v8.14h-21.01v10.47h24.63Z"/>
        </g>
      </g>
      <g>
        <path class="cls-2" d="M325.47,317.8c.2.32.41.63.61.96,1.98,3.19,4.65,7.43,8.02,12.71,5.7,8.93,9.45,18.76,9.36,30.12-.17,20.15-14.97,36.37-32.68,36.37s-32.51-16.22-32.68-36.37c-.1-11.37,3.66-21.19,9.36-30.12,3.37-5.28,6.05-9.52,8.02-12.71.2-.33.41-.64.61-.96h-31.4v54.52c0,22.12,17.93,40.06,40.06,40.06h12.05c22.12,0,40.06-17.93,40.06-40.06v-54.52h-31.39Z"/>
        <path class="cls-2" d="M310.78,299.64c2.1,4.7,4.87,8.38,7.76,12.21,1.88,2.49,3.82,5.07,5.68,8.06,1.97,3.18,4.68,7.47,8.04,12.73,6.15,9.63,9.1,19.09,9.02,28.92-.16,18.86-13.83,34.2-30.49,34.2s-30.33-15.34-30.49-34.2c-.08-9.83,2.87-19.29,9.02-28.92,3.36-5.27,6.07-9.55,8.04-12.73,1.86-3,3.8-5.57,5.68-8.07,2.89-3.83,5.66-7.5,7.76-12.21M310.78,293.32s-.06.01-.08.04c0,0,0,.01,0,.02-2.95,10.86-9.4,16.01-15.21,25.38-1.98,3.19-4.65,7.43-8.02,12.71-5.7,8.93-9.46,18.75-9.36,30.12.17,20.15,14.97,36.37,32.68,36.37s32.52-16.22,32.68-36.37c.1-11.36-3.66-21.19-9.36-30.12-3.37-5.28-6.05-9.52-8.02-12.71-5.8-9.37-12.25-14.52-15.2-25.38,0,0,0-.01-.01-.02-.02-.03-.05-.04-.08-.04h0Z"/>
        <path class="cls-2" d="M292.18,343.74c-3.56,11.7-3.21,23.52,4.55,33.34,2.34,3.19,5.18,6.18,8.15,9.35-8.53-2.54-16.04-9.11-18.78-17.77-2.77-8.63-.41-18.63,6.08-24.91h0Z"/>
      </g>
    </g>
    <rect class="cls-2" x="175.63" y="434.65" width="848.73" height="5.71"/>
  </g>
</svg>